<svg width="40" height="40" viewBox="0 0 100 100" fill="none" xmlns="http://www.w3.org/2000/svg">
<circle cx="50" cy="50" r="50" fill="#55ACEE"/>
<path fill-rule="evenodd" clip-rule="evenodd" d="M24.6323 65.6312C24.0155 64.3302 23.3063 61.3379 25.4031 59.7766C26.688 61.2278 30.0594 64.07 33.2662 63.8298C32.7523 59.6766 34.4688 50.079 45.4461 44.9149C47.1893 44.0949 48.8803 43.3184 50.5104 42.5699C61.7121 37.4263 70.0434 33.6007 72.7352 26C80.0945 43.5027 79.3648 72.2365 47.4504 73.4374C44.6933 73.2942 39.6958 72.4802 36.3063 70.402C36.5301 70.4192 36.6956 70.4302 36.7848 70.435C55.0542 65.7186 67.1202 46.8528 70.8695 38.0095C62.2802 53.6327 44.6525 65.256 33.4048 67.2825C33.3619 67.2903 33.3194 67.298 33.2772 67.3057C33.2735 67.298 33.2699 67.2903 33.2662 67.2825C31.5702 67.3326 27.469 67.0724 24.6323 65.6312Z" fill="white"/>
</svg>
